<svg viewBox="0 0 500 500" xmlns="http://www.w3.org/2000/svg">
          <defs />
          <g
            id="Light"
            transform="matrix(1.083658, 0, 0, 1.083658, -183.246628, -74.664093)"
            style=""
          >
            <g
              id="OneArt-_x2022_-Desktop-_x2022_-Light"
              transform="translate(-457.000000, -1515.000000)"
            >
              <g id="Block" transform="translate(41.000000, 1263.000000)">
                <g id="TVL" transform="translate(48.000000, 252.000000)">
                  <g id="Icons_x2F_Icon-24_x2F_cake" transform="translate(368.000000, 0.000000)">
                    <circle
                      id="Oval"
                      class="bsc0"
                      cx="399.8"
                      cy="299.6"
                      r="230.7"
                      style="clip-rule: evenodd; fill: rgb(243, 186, 47); fill-rule: evenodd;"
                    />
                    <g
                      id="Icons_x2F_icon-24_x2F_networks_x2F_binance_x5F_smart_x5F_chain"
                      transform="translate(3.333333, 3.333333)"
                    >
                      <path
                        id="Combined-Shape"
                        class="bsc1"
                        d="M456.3,320.8l34.8,34.7L396.5,450L302,355.5l34.8-34.7l59.7,59.7L456.3,320.8z
                       M396.5,261l35.3,35.3h0l0,0l-35.3,35.3l-35.2-35.2l0-0.1l0,0l6.2-6.2l3-3L396.5,261z M277.5,261.5l34.8,34.8L277.5,331
                      l-34.8-34.8L277.5,261.5z M515.5,261.5l34.8,34.8L515.5,331l-34.8-34.8L515.5,261.5z M396.5,142.5L491,237l-34.8,34.8
                      L396.5,212l-59.7,59.7L302,237L396.5,142.5z"
                        style="clip-rule: evenodd; fill: rgb(19, 20, 21); fill-rule: evenodd;"
                      />
                    </g>
                  </g>
                </g>
              </g>
            </g>
          </g>
        </svg>