<svg viewBox="0 0 500 500" xmlns="http://www.w3.org/2000/svg">
          <defs />
          <circle cx="250" cy="250" r="250" fill="#E8E7E6" style="" />
          <path
            d="M 188.637 270.613 C 197.542 270.613 205.726 267.613 212.298 262.565 L 158.03 208.298 C 152.935 214.821 149.982 223.054 149.982 231.958 C 149.982 253.238 167.31 270.613 188.637 270.613 Z"
            fill="#041427"
            style=""
          />
          <path
            d="M 349.97 231.911 C 349.97 223.012 346.97 214.821 341.923 208.25 L 287.655 262.47 C 294.179 267.565 302.411 270.518 311.315 270.518 C 332.643 270.613 349.97 253.238 349.97 231.911 Z"
            fill="#041427"
            style=""
          />
          <path
            d="M 377.292 172.833 L 353.298 196.827 C 361.25 206.345 366.012 218.536 366.012 231.863 C 366.012 262.042 341.446 286.607 311.268 286.607 C 297.982 286.607 285.75 281.798 276.232 273.899 L 249.952 300.173 L 223.673 273.899 C 214.155 281.845 201.97 286.607 188.637 286.607 C 158.458 286.607 133.893 262.042 133.893 231.863 C 133.893 218.583 138.702 206.345 146.607 196.827 L 134.321 184.548 L 122.661 172.881 C 109.048 195.399 101.19 221.774 101.19 250 C 101.19 332.167 167.786 398.81 250 398.81 C 332.214 398.81 398.81 332.214 398.81 250 C 398.762 221.726 390.905 195.399 377.292 172.833 Z"
            fill="#041427"
            style=""
          />
          <path
            d="M 357.583 147.274 C 330.542 118.899 292.274 101.19 249.952 101.19 C 207.631 101.19 169.357 118.899 142.321 147.274 C 138.655 151.173 135.179 155.22 131.893 159.458 L 249.952 277.613 L 368.006 159.458 C 364.821 155.173 361.298 151.173 357.583 147.274 Z M 249.952 120.661 C 284.798 120.661 317.119 134.083 341.446 158.554 L 249.952 250.048 L 158.458 158.554 C 182.78 134.036 215.155 120.661 249.952 120.661 Z"
            fill="#041427"
            style=""
          />
        </svg>