<svg width="267" height="267" viewBox="0 0 267 267" fill="none" xmlns="http://www.w3.org/2000/svg">
<circle cx="133.5" cy="133.5" r="133.5" fill="#97A6FE"/>
<path d="M122.659 116C121.659 112.939 120.341 110.197 118.705 107.773C117.098 105.318 115.174 103.227 112.932 101.5C110.72 99.7727 108.205 98.4545 105.386 97.5454C102.568 96.6364 99.4773 96.1818 96.1136 96.1818C90.5985 96.1818 85.5833 97.6061 81.0682 100.455C76.553 103.303 72.9621 107.5 70.2955 113.045C67.6288 118.591 66.2955 125.394 66.2955 133.455C66.2955 141.515 67.6439 148.318 70.3409 153.864C73.0379 159.409 76.6894 163.606 81.2955 166.455C85.9015 169.303 91.0833 170.727 96.8409 170.727C102.174 170.727 106.871 169.591 110.932 167.318C115.023 165.015 118.205 161.773 120.477 157.591C122.78 153.379 123.932 148.424 123.932 142.727L127.386 143.455H99.3864V133.455H134.841V143.455C134.841 151.121 133.205 157.788 129.932 163.455C126.689 169.121 122.205 173.515 116.477 176.636C110.78 179.727 104.235 181.273 96.8409 181.273C88.5985 181.273 81.3561 179.333 75.1136 175.455C68.9015 171.576 64.053 166.061 60.5682 158.909C57.1136 151.758 55.3864 143.273 55.3864 133.455C55.3864 126.091 56.3712 119.47 58.3409 113.591C60.3409 107.682 63.1591 102.652 66.7955 98.5C70.4318 94.3485 74.7348 91.1667 79.7045 88.9545C84.6742 86.7424 90.1439 85.6364 96.1136 85.6364C101.023 85.6364 105.598 86.3788 109.841 87.8636C114.114 89.3182 117.917 91.3939 121.25 94.0909C124.614 96.7576 127.417 99.9545 129.659 103.682C131.902 107.379 133.447 111.485 134.295 116H122.659ZM181.057 181.455C174.754 181.455 169.223 179.955 164.466 176.955C159.739 173.955 156.042 169.758 153.375 164.364C150.739 158.97 149.42 152.667 149.42 145.455C149.42 138.182 150.739 131.833 153.375 126.409C156.042 120.985 159.739 116.773 164.466 113.773C169.223 110.773 174.754 109.273 181.057 109.273C187.36 109.273 192.875 110.773 197.602 113.773C202.36 116.773 206.057 120.985 208.693 126.409C211.36 131.833 212.693 138.182 212.693 145.455C212.693 152.667 211.36 158.97 208.693 164.364C206.057 169.758 202.36 173.955 197.602 176.955C192.875 179.955 187.36 181.455 181.057 181.455ZM181.057 171.818C185.845 171.818 189.784 170.591 192.875 168.136C195.966 165.682 198.254 162.455 199.739 158.455C201.223 154.455 201.966 150.121 201.966 145.455C201.966 140.788 201.223 136.439 199.739 132.409C198.254 128.379 195.966 125.121 192.875 122.636C189.784 120.152 185.845 118.909 181.057 118.909C176.269 118.909 172.33 120.152 169.239 122.636C166.148 125.121 163.86 128.379 162.375 132.409C160.89 136.439 160.148 140.788 160.148 145.455C160.148 150.121 160.89 154.455 162.375 158.455C163.86 162.455 166.148 165.682 169.239 168.136C172.33 170.591 176.269 171.818 181.057 171.818ZM167.966 98.5455C166.057 98.5455 164.36 97.8182 162.875 96.3636C161.42 94.8788 160.693 93.1818 160.693 91.2727C160.693 89.1818 161.42 87.4545 162.875 86.0909C164.36 84.697 166.057 84 167.966 84C170.057 84 171.784 84.697 173.148 86.0909C174.542 87.4545 175.239 89.1818 175.239 91.2727C175.239 93.1818 174.542 94.8788 173.148 96.3636C171.784 97.8182 170.057 98.5455 167.966 98.5455ZM194.148 98.5455C192.239 98.5455 190.542 97.8182 189.057 96.3636C187.602 94.8788 186.875 93.1818 186.875 91.2727C186.875 89.1818 187.602 87.4545 189.057 86.0909C190.542 84.697 192.239 84 194.148 84C196.239 84 197.966 84.697 199.33 86.0909C200.723 87.4545 201.42 89.1818 201.42 91.2727C201.42 93.1818 200.723 94.8788 199.33 96.3636C197.966 97.8182 196.239 98.5455 194.148 98.5455Z" fill="white"/>
</svg>
