<svg width="267" height="267" viewBox="0 0 267 267" fill="none" xmlns="http://www.w3.org/2000/svg">
<circle cx="133.5" cy="133.5" r="133.5" fill="#97A6FE"/>
<path d="M117.619 110.182C117.074 105.576 114.862 102 110.983 99.4545C107.104 96.9091 102.347 95.6364 96.7102 95.6364C92.589 95.6364 88.983 96.303 85.892 97.6364C82.8314 98.9697 80.4375 100.803 78.7102 103.136C77.0133 105.47 76.1648 108.121 76.1648 111.091C76.1648 113.576 76.7557 115.712 77.9375 117.5C79.1496 119.258 80.6951 120.727 82.5739 121.909C84.4527 123.061 86.4223 124.015 88.483 124.773C90.5436 125.5 92.4375 126.091 94.1648 126.545L103.619 129.091C106.044 129.727 108.741 130.606 111.71 131.727C114.71 132.848 117.574 134.379 120.301 136.318C123.059 138.227 125.331 140.682 127.119 143.682C128.907 146.682 129.801 150.364 129.801 154.727C129.801 159.758 128.483 164.303 125.847 168.364C123.241 172.424 119.422 175.652 114.392 178.045C109.392 180.439 103.316 181.636 96.1648 181.636C89.4981 181.636 83.7254 180.561 78.8466 178.409C73.9981 176.258 70.1799 173.258 67.392 169.409C64.6345 165.561 63.0739 161.091 62.7102 156H74.3466C74.6496 159.515 75.8314 162.424 77.892 164.727C79.983 167 82.6193 168.697 85.8011 169.818C89.0133 170.909 92.4678 171.455 96.1648 171.455C100.468 171.455 104.331 170.758 107.756 169.364C111.18 167.939 113.892 165.97 115.892 163.455C117.892 160.909 118.892 157.939 118.892 154.545C118.892 151.455 118.028 148.939 116.301 147C114.574 145.061 112.301 143.485 109.483 142.273C106.665 141.061 103.619 140 100.347 139.091L88.892 135.818C81.6193 133.727 75.8617 130.742 71.6193 126.864C67.3769 122.985 65.2557 117.909 65.2557 111.636C65.2557 106.424 66.6648 101.879 69.483 98C72.3314 94.0909 76.1496 91.0606 80.9375 88.9091C85.7557 86.7273 91.1345 85.6364 97.0739 85.6364C103.074 85.6364 108.407 86.7121 113.074 88.8636C117.741 90.9848 121.438 93.8939 124.165 97.5909C126.922 101.288 128.377 105.485 128.528 110.182H117.619ZM176.153 181.455C169.426 181.455 163.623 179.97 158.744 177C153.896 174 150.153 169.818 147.517 164.455C144.911 159.061 143.608 152.788 143.608 145.636C143.608 138.485 144.911 132.182 147.517 126.727C150.153 121.242 153.82 116.97 158.517 113.909C163.244 110.818 168.759 109.273 175.062 109.273C178.699 109.273 182.29 109.879 185.835 111.091C189.381 112.303 192.608 114.273 195.517 117C198.426 119.697 200.744 123.273 202.472 127.727C204.199 132.182 205.062 137.667 205.062 144.182V148.727H151.244V139.455H194.153C194.153 135.515 193.366 132 191.79 128.909C190.244 125.818 188.032 123.379 185.153 121.591C182.305 119.803 178.941 118.909 175.062 118.909C170.79 118.909 167.093 119.97 163.972 122.091C160.881 124.182 158.502 126.909 156.835 130.273C155.169 133.636 154.335 137.242 154.335 141.091V147.273C154.335 152.545 155.244 157.015 157.062 160.682C158.911 164.318 161.472 167.091 164.744 169C168.017 170.879 171.82 171.818 176.153 171.818C178.972 171.818 181.517 171.424 183.79 170.636C186.093 169.818 188.078 168.606 189.744 167C191.411 165.364 192.699 163.333 193.608 160.909L203.972 163.818C202.881 167.333 201.047 170.424 198.472 173.091C195.896 175.727 192.714 177.788 188.926 179.273C185.138 180.727 180.881 181.455 176.153 181.455Z" fill="white"/>
</svg>
